<svg width="13.999999999999998" height="13.999999999999998" xmlns="http://www.w3.org/2000/svg">
 <metadata id="metadata14">image/svg+xml</metadata>

 <g>
  <title>background</title>
  <rect fill="none" id="canvas_background" height="402" width="582" y="-1" x="-1"/>
 </g>
 <g>
  <title>Layer 1</title>
  <path fill="#13c11e" fill-rule="evenodd" id="path2" d="m7.00006,14.00002c3.86593,0 6.99994,-3.134 6.99994,-7c0,-3.866 -3.13401,-7 -6.99994,-7c-3.86604,0 -7.00006,3.134 -7.00006,7c0,3.866 3.13402,7 7.00006,7"/>
  <path opacity="0.5" fill="#000000" stroke-width="2" stroke-linecap="round" stroke-linejoin="round" stroke-miterlimit="4" id="path4" d="m2.40721,6.97181l4.58594,4.5859l0,-3.5859c0,-0.4155 -0.5845,-1 -1,-1l-3.58594,0z"/>
  <path opacity="0.5" fill="#000000" stroke-width="2" stroke-linecap="round" stroke-linejoin="round" stroke-miterlimit="4" id="path4" d="m7.05791,2.45796l0,3.5859c0,0.4155 0.5845,1 1,1l3.58594,0l-4.58594,-4.5859z"/>
 </g>
</svg>