<?xml version="1.0" encoding="utf-8"?>
<svg id="master-artboard" viewBox="0 0 14 14" version="1.1" xmlns="http://www.w3.org/2000/svg" x="0px" y="0px" style="enable-background:new 0 0 1400 980;" width="14px" height="14px"><rect id="ee-background" x="0" y="0" width="14" height="14" style="fill: white; fill-opacity: 0; pointer-events: none;"/><g transform="matrix(1, 0, 0, 1, -1.0000019073488602, -0.8333333333333321)"><metadata id="metadata26"/><g transform="translate(-1426,-247)" style="display:inline;opacity:1" id="g4490-3-75"><g id="g4092-0-7-0" style="display:inline" transform="translate(58,0)"/></g><g id="g4146"><path d="M 0 0.000003 H 16 V 16.000003 H 0 V 0.000003 Z" id="rect17883-32" style="display:inline;opacity:1;fill:none;fill-opacity:1;stroke:none;stroke-width:1;stroke-linecap:butt;stroke-linejoin:miter;stroke-miterlimit:4;stroke-dasharray:none;stroke-dashoffset:0;stroke-opacity:0"/><path id="path3842-6" d="M 5.5,4 C 4.6689999,4 4,4.669 4,5.5 l 0,6.5 8,0 0,-6.5 C 12,4.669 11.331,4 10.5,4 Z m 4.5,1 1,0 0,1 -1,0 z m -4,2 4,0 0,3 -4,0 z" style="display:inline;overflow:visible;visibility:visible;fill:#000000;fill-opacity:0.5;fill-rule:nonzero;stroke:none;stroke-width:0.80000001;marker:none;enable-background:accumulate"/></g></g></svg>